<svg xmlns="http://www.w3.org/2000/svg" xmlns:xlink="http://www.w3.org/1999/xlink" width="91.389" height="92.373" viewBox="0 0 91.389 92.373">
  <defs>
    <linearGradient id="linear-gradient" x1="0.5" y1="0.866" x2="0.5" y2="-0.406" gradientUnits="objectBoundingBox">
      <stop offset="0" stop-color="#037afc"/>
      <stop offset="1" stop-color="#06b3ff"/>
    </linearGradient>
  </defs>
  <g id="Weigel_s_Stamp_Logo" data-name="Weigel&apos;s Stamp Logo" transform="translate(-362.822 -295.383)">
    <path id="Path_36" data-name="Path 36" d="M450.447,374.965l31.642,52.278L493.477,409.2l-6.7-11.92-5.464,7.951-17.559-30.266Z" transform="translate(-58.33 -52.975)" fill="url(#linear-gradient)"/>
    <path id="Path_37" data-name="Path 37" d="M378.742,383.48l-4.486-7.41c.157-.371.325-.737.5-1.1h7.471A39.4,39.4,0,0,0,378.742,383.48Z" transform="translate(-7.611 -52.976)" fill="#0a2949"/>
    <path id="Path_38" data-name="Path 38" d="M452.3,406.484l-.676,1.813a46.878,46.878,0,0,1-3.995,7.592,46.233,46.233,0,0,1-19.29,16.683,46.268,46.268,0,0,1-64.163-53.223c.181-.729.379-1.458.6-2.175.164-.548.338-1.1.531-1.638l4.105,6.776s.875.886.8,1.324a39.688,39.688,0,0,0,4.426,25.868,40.009,40.009,0,0,0,9.353,11.266,39.359,39.359,0,0,0,12.788,7.114l.262.088c.309.1.624.2.939.286a39.991,39.991,0,0,0,13.319,1.615,39.315,39.315,0,0,0,14.27-3.394,40.329,40.329,0,0,0,19.757-19.115l-25.436-38.347,31.349,36.242Z" transform="translate(0 -49.016)" fill="#fe0000"/>
    <path id="Path_39" data-name="Path 39" d="M465.439,345.315l-.472,3.516-2.362-2.467-7.213-7.54q-3.613-3.753-7.184-7.569-3.586-3.787-7.137-7.616T434,315.954l.041-.041q3.927,3.437,7.808,6.939,3.884,3.473,7.738,7t7.692,7.056l4.741,4.385c-.082-1.3-.233-2.6-.437-3.872a43.184,43.184,0,0,0-1.878-7.342,45.208,45.208,0,0,0-7.365-13.109,41.75,41.75,0,0,0-25.2-15.068,35.149,35.149,0,0,0-7.383-.467,40.111,40.111,0,0,0-7.371.945,39.524,39.524,0,0,0-13.552,5.826,40.05,40.05,0,0,0-10.5,10.339c-.122.175-.245.35-.361.531h-7.75a42.755,42.755,0,0,1,2.729-4.327A46.524,46.524,0,0,1,395.3,302.868a45.287,45.287,0,0,1,15.791-6.543,46.021,46.021,0,0,1,8.52-.927,41.326,41.326,0,0,1,8.56.694,45.58,45.58,0,0,1,15.821,6.24,48.666,48.666,0,0,1,12.52,11.331,44.248,44.248,0,0,1,7.686,14.987,41.534,41.534,0,0,1,1.493,8.292A40.561,40.561,0,0,1,465.439,345.315Z" transform="translate(-11.589)" fill="#fff"/>
    <path id="Path_40" data-name="Path 40" d="M414.908,409.357,403.9,427.245,377.415,383.48l-4.486-7.41-.666-1.1h13.31l17.557,30.266,4.618-7.654Z" transform="translate(-6.285 -52.977)" fill="url(#linear-gradient)"/>
    <path id="Path_41" data-name="Path 41" d="M371.048,388.954l-6.968-11.948,2.916,14.578" transform="translate(-0.837 -54.334)" fill="#fe0000"/>
    <path id="Path_42" data-name="Path 42" d="M505.261,330.426l7.556-.674-7.549-.673,2.844-3.465-3.784,2.547-.675-7.572-.674,7.559-3.926-2.958,2.993,3.89-7.556.674,7.552.674-3.131,3.964,4.068-3.034.674,7.56.675-7.564,3.785,2.754Zm-2.54.234,0,0a1.3,1.3,0,0,1-.368-.905v0a1.3,1.3,0,0,1,.375-.913l0,0a1.3,1.3,0,0,1,.923-.385h0a1.3,1.3,0,0,1,.961.425l0,0a1.3,1.3,0,0,1,.338.874h0a1.3,1.3,0,0,1-.367.9l0,0a1.3,1.3,0,0,1-.932.394h0A1.3,1.3,0,0,1,502.721,330.66Z" transform="translate(-87.648 -16.778)" fill="#fe0000"/>
  </g>
</svg>
