<svg xmlns="http://www.w3.org/2000/svg" width="452.245" height="81.782" viewBox="0 0 452.245 81.782">
  <g id="Weigel_s_Text_Logo" data-name="Weigel&apos;s Text Logo" transform="translate(-205.5 -598.284)">
    <g id="Group_111" data-name="Group 111" transform="translate(205.5 598.284)">
      <g id="Group_68" data-name="Group 68">
        <path id="Path_43" data-name="Path 43" d="M220.846,599.249l13.27,36.994h2.743l11.2-36.994h18.163l11.269,36.994H280.3l13.344-36.994h15.939l-19.2,49.448H267.181l-9.934-36.253L247.461,648.7H224.108L205.5,599.249Z" transform="translate(-205.5 -598.507)" fill="#fff"/>
        <path id="Path_44" data-name="Path 44" d="M398.826,599.249v11.639H358.941v7.191h37.883v10.9H358.941v7.859h40.183V648.7h-55.01V599.249Z" transform="translate(-237.503 -598.507)" fill="#fff"/>
        <path id="Path_45" data-name="Path 45" d="M437.6,599.249V648.7H421.807V599.249Z" transform="translate(-255.44 -598.507)" fill="#fff"/>
        <path id="Path_46" data-name="Path 46" d="M515.512,620.451v1.335c0,4.892-.3,13.344-.518,15.716-.593,5.783-3.781,9.193-9.712,10.379-5.042,1.038-10.231,1.334-23.65,1.334-16.977,0-22.242-.668-26.392-3.484-4.375-2.892-5.19-6.524-5.19-22.76,0-23.131,2.15-24.688,34.177-24.688,18.387,0,25.207,1.186,28.468,5.116,2.077,2.446,2.67,5.485,2.743,12.751H500.389c-.075-2.891-.223-3.485-1.187-4.152-1.482-1.038-4.966-1.334-16.235-1.334-17.793,0-17.867.074-17.867,12.9,0,8.377.445,10.9,2.076,12.232,1.261,1.038,2.594,1.261,6.821,1.409l8.822.148c17.571,0,18.016-.148,18.016-5.635v-1.408H481.04v-9.861Z" transform="translate(-261.961 -598.284)" fill="#fff"/>
        <path id="Path_47" data-name="Path 47" d="M597.687,599.249v11.639H557.8v7.191h37.884v10.9H557.8v7.859h40.182V648.7H542.974V599.249Z" transform="translate(-283.415 -598.507)" fill="#fff"/>
        <path id="Path_48" data-name="Path 48" d="M636.459,599.249v36.845H671.6v12.6H620.668V599.249Z" transform="translate(-301.353 -598.507)" fill="#fff"/>
        <path id="Path_49" data-name="Path 49" d="M691.939,621.045l-1.482-21.8h14.309l-1.41,21.8Z" transform="translate(-317.465 -598.507)" fill="#fff"/>
        <path id="Path_50" data-name="Path 50" d="M729.45,632.09c0,2.966.3,3.93,1.483,4.671,1.408.89,3.039,1.038,13.641,1.038,16.162,0,16.162,0,16.162-4.374,0-2.966-1.113-3.707-5.932-3.781l-11.861-.445-8.007-.37-4-.148C718.7,628.31,715.29,625.2,715.29,614.3c0-9.416,2.669-13.641,9.489-15.124,2.891-.593,9.712-.89,21.573-.89,14.383,0,19.573.668,23.057,3.04,2.966,2,4.152,5.116,4.152,10.973,0,.3,0,1.334-.074,2.3H758.956c-.148-2.743-.371-3.409-1.482-4.077-1.261-.741-3.113-.89-13.79-.89-12.751,0-13.79.3-13.79,3.929,0,1.854.667,2.817,2.224,3.188,1.335.371,5.412.593,15.866.89,16.31.518,19.5.889,22.686,2.891,3.41,2.224,4.671,5.56,4.671,12.454,0,8.6-2.076,12.826-7.192,14.753-2.965,1.112-9.193,1.483-23.945,1.483-15.346,0-21.352-.668-24.836-2.892-3.411-2.149-4.522-5.041-4.522-11.861V632.09Z" transform="translate(-323.096 -598.284)" fill="#fff"/>
      </g>
      <g id="Group_110" data-name="Group 110" transform="translate(0.746 64.853)">
        <g id="Group_109" data-name="Group 109">
          <g id="Group_70" data-name="Group 70">
            <g id="Group_69" data-name="Group 69">
              <path id="Path_51" data-name="Path 51" d="M227.441,692.955c.025.937.049,1.306.049,1.553,0,2.661-.69,3.868-2.513,4.46-1.331.418-3.13.566-6.777.566-6.431,0-8.5-.2-9.832-.961-1.084-.616-1.577-1.528-1.774-3.2-.075-.739-.124-2.1-.124-4.189,0-3.672.1-5.028.469-5.939.887-2.218,2.686-2.637,11.286-2.637,4.386,0,5.914.173,7.047.764,1.4.715,1.9,1.923,1.9,4.559v.813h-5c-.049-1.084-.1-1.306-.394-1.552-.371-.321-1.824-.468-4.979-.468-3.13,0-4.041.1-4.534.492-.591.494-.788,1.454-.788,3.943,0,4.214.074,4.263,5.347,4.263,5.5,0,5.569-.025,5.594-2.464Z" transform="translate(-206.47 -682.605)" fill="#fe0000"/>
            </g>
          </g>
          <g id="Group_72" data-name="Group 72" transform="translate(22.649 0.247)">
            <g id="Group_71" data-name="Group 71">
              <path id="Path_52" data-name="Path 52" d="M240.92,682.926v7.565a16.666,16.666,0,0,0,.172,3.277c.271,1.306,1.233,1.577,5.5,1.577,3.45,0,4.486-.148,5.027-.74.395-.418.518-.862.591-2.414.025-.567.049-1.356.049-1.7v-7.565h5v7.565a39.07,39.07,0,0,1-.247,5.15,4.129,4.129,0,0,1-3.4,3.573,35.465,35.465,0,0,1-6.949.394c-6.285,0-8.256-.345-9.488-1.651-.813-.838-1.084-1.848-1.208-4.263-.025-.542-.025-.542-.049-3.2v-7.565Z" transform="translate(-235.918 -682.926)" fill="#fe0000"/>
            </g>
          </g>
          <g id="Group_74" data-name="Group 74" transform="translate(45.643)">
            <g id="Group_73" data-name="Group 73">
              <path id="Path_53" data-name="Path 53" d="M270.669,693.842c0,.986.1,1.307.492,1.553.468.3,1.011.345,4.534.345,5.372,0,5.372,0,5.372-1.454,0-.985-.369-1.232-1.971-1.257l-3.943-.148-2.662-.123-1.331-.05c-4.066-.123-5.2-1.158-5.2-4.78,0-3.13.888-4.534,3.154-5.027a48.6,48.6,0,0,1,7.171-.3c4.78,0,6.505.222,7.664,1.011.986.665,1.38,1.7,1.38,3.647,0,.1,0,.444-.025.765h-4.829c-.05-.912-.123-1.135-.494-1.356-.418-.246-1.034-.3-4.583-.3-4.239,0-4.583.1-4.583,1.306,0,.615.221.936.739,1.059a38.97,38.97,0,0,0,5.273.3c5.422.173,6.481.3,7.541.961,1.134.74,1.552,1.848,1.552,4.14,0,2.858-.69,4.263-2.39,4.9-.985.369-3.055.492-7.96.492-5.1,0-7.1-.221-8.255-.961-1.134-.715-1.5-1.676-1.5-3.943v-.789Z" transform="translate(-265.814 -682.605)" fill="#fe0000"/>
            </g>
          </g>
          <g id="Group_76" data-name="Group 76" transform="translate(66.541 0.247)">
            <g id="Group_75" data-name="Group 75">
              <path id="Path_54" data-name="Path 54" d="M312.872,682.926v4.189h-7.319v12.248H300.3V687.115h-7.319v-4.189Z" transform="translate(-292.986 -682.926)" fill="#fe0000"/>
            </g>
          </g>
          <g id="Group_78" data-name="Group 78" transform="translate(87.563)">
            <g id="Group_77" data-name="Group 77">
              <path id="Path_55" data-name="Path 55" d="M341.264,683.739c1.257.961,1.627,2.612,1.627,7.319,0,4.731-.37,6.382-1.627,7.344s-2.809,1.133-9.61,1.133c-6.924,0-8.453-.172-9.709-1.133-1.281-.986-1.626-2.613-1.626-7.442,0-4.583.369-6.259,1.626-7.221s2.785-1.134,9.66-1.134S340.007,682.778,341.264,683.739ZM325.715,687.9c-.3.566-.395,1.5-.395,3.6,0,2.046.148,2.711.739,3.18.665.518,1.454.591,5.594.591,4.017,0,4.83-.1,5.495-.591.567-.444.74-1.158.74-3.154,0-2.44-.148-3.376-.591-3.919-.567-.665-1.108-.739-5.692-.739C326.676,686.868,326.207,686.943,325.715,687.9Z" transform="translate(-320.318 -682.605)" fill="#fe0000"/>
            </g>
          </g>
          <g id="Group_80" data-name="Group 80" transform="translate(112.109 0.247)">
            <g id="Group_79" data-name="Group 79">
              <path id="Path_56" data-name="Path 56" d="M361.3,682.926l4.879,10.67,4.9-10.67h9.02v16.436h-4.929l.123-12.3h-.838l-6.185,12.3H364.11l-6.185-12.3h-.888l.124,12.3h-4.929V682.926Z" transform="translate(-352.232 -682.926)" fill="#fe0000"/>
            </g>
          </g>
          <g id="Group_82" data-name="Group 82" transform="translate(148.436 0.247)">
            <g id="Group_81" data-name="Group 81">
              <path id="Path_57" data-name="Path 57" d="M404.712,682.926v12.247h11.681v4.189H399.464V682.926Z" transform="translate(-399.464 -682.926)" fill="#fe0000"/>
            </g>
          </g>
          <g id="Group_84" data-name="Group 84" transform="translate(165.958 0.247)">
            <g id="Group_83" data-name="Group 83">
              <path id="Path_58" data-name="Path 58" d="M440.234,696.578H429.367l-1.4,2.784h-5.717l8.7-16.436h7.787l8.6,16.436h-5.693Zm-4.928-9.832h-.986l-3.179,6.234h7.343Z" transform="translate(-422.246 -682.926)" fill="#fe0000"/>
            </g>
          </g>
          <g id="Group_86" data-name="Group 86" transform="translate(191.195)">
            <g id="Group_85" data-name="Group 85">
              <path id="Path_59" data-name="Path 59" d="M459.912,693.842c0,.986.1,1.307.493,1.553.468.3,1.011.345,4.534.345,5.372,0,5.372,0,5.372-1.454,0-.985-.37-1.232-1.971-1.257l-3.943-.148-2.662-.123-1.331-.05c-4.066-.123-5.2-1.158-5.2-4.78,0-3.13.888-4.534,3.154-5.027a48.584,48.584,0,0,1,7.171-.3c4.781,0,6.506.222,7.664,1.011.985.665,1.38,1.7,1.38,3.647,0,.1,0,.444-.025.765h-4.83c-.049-.912-.123-1.135-.493-1.356-.418-.246-1.034-.3-4.583-.3-4.239,0-4.583.1-4.583,1.306,0,.615.221.936.739,1.059a38.957,38.957,0,0,0,5.273.3c5.422.173,6.481.3,7.54.961,1.134.74,1.553,1.848,1.553,4.14,0,2.858-.69,4.263-2.39,4.9-.985.369-3.056.492-7.96.492-5.1,0-7.1-.221-8.255-.961-1.134-.715-1.5-1.676-1.5-3.943v-.789Z" transform="translate(-455.058 -682.605)" fill="#fe0000"/>
            </g>
          </g>
          <g id="Group_88" data-name="Group 88" transform="translate(213.055 0.247)">
            <g id="Group_87" data-name="Group 87">
              <path id="Path_60" data-name="Path 60" d="M501.665,682.926v3.869H488.409v2.39H501v3.623H488.409v2.611h13.356v3.943H483.48V682.926Z" transform="translate(-483.48 -682.926)" fill="#fe0000"/>
            </g>
          </g>
          <g id="Group_90" data-name="Group 90" transform="translate(232.919 0.247)">
            <g id="Group_89" data-name="Group 89">
              <path id="Path_61" data-name="Path 61" d="M509.307,682.926h12.1c5.668,0,5.668,0,6.727.641,1.257.764,1.627,1.848,1.627,4.707,0,2.439-.247,3.376-1.134,4.041a3.609,3.609,0,0,1-1.922.69c2.539.3,2.982,1.034,2.883,4.83v1.527h-4.929V698.5c0-1.848-.1-2.44-.493-2.859-.345-.395-.715-.444-2.785-.444h-7.072v4.165h-5Zm12.05,8.157c2.514-.049,2.514-.049,2.858-.3.395-.246.542-.738.542-1.774,0-1.109-.2-1.577-.715-1.8-.345-.148-.418-.148-2.686-.173h-7.048v4.042Z" transform="translate(-509.307 -682.926)" fill="#fe0000"/>
            </g>
          </g>
          <g id="Group_92" data-name="Group 92" transform="translate(261.26 0.247)">
            <g id="Group_91" data-name="Group 91" transform="translate(0)">
              <path id="Path_62" data-name="Path 62" d="M564.341,682.926v3.869H551.085v2.39h12.591v3.623H551.085v2.611H564.44v3.943H546.156V682.926Z" transform="translate(-546.156 -682.926)" fill="#fe0000"/>
            </g>
          </g>
          <g id="Group_94" data-name="Group 94" transform="translate(281.125 0.247)">
            <g id="Group_93" data-name="Group 93">
              <path id="Path_63" data-name="Path 63" d="M580.756,682.926l8.6,12.247h.518l-.123-12.247h5.1v16.436h-8.7l-8.65-12.271h-.541l.123,12.271h-5.1V682.926Z" transform="translate(-571.983 -682.926)" fill="#fe0000"/>
            </g>
          </g>
          <g id="Group_96" data-name="Group 96" transform="translate(305.941)">
            <g id="Group_95" data-name="Group 95">
              <path id="Path_64" data-name="Path 64" d="M626.008,689.974v.443c0,1.627-.1,4.436-.172,5.224a3.619,3.619,0,0,1-3.228,3.45,38.469,38.469,0,0,1-7.861.443c-5.643,0-7.393-.221-8.773-1.158-1.454-.961-1.725-2.168-1.725-7.565,0-7.688.715-8.206,11.36-8.206,6.112,0,8.379.395,9.463,1.7.69.813.887,1.823.912,4.238h-5c-.025-.961-.074-1.158-.395-1.38-.492-.345-1.651-.444-5.4-.444-5.915,0-5.939.025-5.939,4.288,0,2.784.148,3.623.691,4.066.418.345.862.418,2.267.468l2.932.05c5.841,0,5.989-.05,5.989-1.874v-.468h-6.58v-3.277Z" transform="translate(-604.249 -682.605)" fill="#fe0000"/>
            </g>
          </g>
          <g id="Group_98" data-name="Group 98" transform="translate(329.699 0.247)">
            <g id="Group_97" data-name="Group 97" transform="translate(0)">
              <path id="Path_65" data-name="Path 65" d="M635.139,682.926h12.1c5.668,0,5.668,0,6.727.641,1.257.764,1.626,1.848,1.626,4.707,0,2.439-.246,3.376-1.134,4.041a3.609,3.609,0,0,1-1.921.69c2.538.3,2.982,1.034,2.883,4.83v1.527h-4.929V698.5c0-1.848-.1-2.44-.492-2.859-.345-.395-.715-.444-2.785-.444h-7.072v4.165h-5Zm12.05,8.157c2.513-.049,2.513-.049,2.858-.3.395-.246.543-.738.543-1.774,0-1.109-.2-1.577-.715-1.8-.344-.148-.418-.148-2.686-.173h-7.047v4.042Z" transform="translate(-635.139 -682.926)" fill="#fe0000"/>
            </g>
          </g>
          <g id="Group_100" data-name="Group 100" transform="translate(350.303 0.247)">
            <g id="Group_99" data-name="Group 99">
              <path id="Path_66" data-name="Path 66" d="M679.915,696.578H669.048l-1.4,2.784h-5.717l8.7-16.436h7.787l8.6,16.436H681.32Zm-4.928-9.832H674l-3.179,6.234h7.344Z" transform="translate(-661.927 -682.926)" fill="#fe0000"/>
            </g>
          </g>
          <g id="Group_102" data-name="Group 102" transform="translate(371.966 0.247)">
            <g id="Group_101" data-name="Group 101">
              <path id="Path_67" data-name="Path 67" d="M695.588,682.926l5.988,12.3h.961l5.914-12.3h5.471l-8.034,16.436h-7.664l-8.132-16.436Z" transform="translate(-690.093 -682.926)" fill="#fe0000"/>
            </g>
          </g>
          <g id="Group_104" data-name="Group 104" transform="translate(396.61 0.247)">
            <g id="Group_103" data-name="Group 103">
              <path id="Path_68" data-name="Path 68" d="M727.384,682.926v16.436h-5.248V682.926Z" transform="translate(-722.135 -682.926)" fill="#fe0000"/>
            </g>
          </g>
          <g id="Group_106" data-name="Group 106" transform="translate(404.176 0.247)">
            <g id="Group_105" data-name="Group 105">
              <path id="Path_69" data-name="Path 69" d="M740.745,682.926l8.6,12.247h.518l-.123-12.247h5.1v16.436h-8.7l-8.649-12.271h-.542l.123,12.271h-5.1V682.926Z" transform="translate(-731.972 -682.926)" fill="#fe0000"/>
            </g>
          </g>
          <g id="Group_108" data-name="Group 108" transform="translate(428.993)">
            <g id="Group_107" data-name="Group 107">
              <path id="Path_70" data-name="Path 70" d="M786,689.974v.443c0,1.627-.1,4.436-.173,5.224a3.619,3.619,0,0,1-3.228,3.45,38.454,38.454,0,0,1-7.86.443c-5.644,0-7.393-.221-8.773-1.158-1.454-.961-1.725-2.168-1.725-7.565,0-7.688.714-8.206,11.36-8.206,6.111,0,8.378.395,9.463,1.7.69.813.888,1.823.912,4.238h-5c-.025-.961-.075-1.158-.395-1.38-.493-.345-1.651-.444-5.4-.444-5.915,0-5.939.025-5.939,4.288,0,2.784.148,3.623.69,4.066.418.345.862.418,2.267.468l2.932.05c5.841,0,5.988-.05,5.988-1.874v-.468h-6.58v-3.277Z" transform="translate(-764.239 -682.605)" fill="#fe0000"/>
            </g>
          </g>
        </g>
      </g>
    </g>
  </g>
</svg>
